# Blender 3.4.1
# www.blender.org
o Suzanne
v 0.554358 0.044939 0.584279
v -0.554358 0.044939 0.584279
v 0.351562 -0.023438 0.617188
v -0.351562 -0.023438 0.617188
v -0.344117 0.115835 0.794743
v 0.344117 0.115835 0.794743
v 0.244472 0.183498 0.808057
v -0.244472 0.183498 0.808057
v 0.156250 0.054688 0.648438
v -0.156250 0.054688 0.648438
v -0.069017 0.242460 0.662145
v 0.069017 0.242460 0.662145
v 0.294953 0.363987 0.804906
v 0.156250 0.437500 0.648438
v -0.156250 0.437500 0.648438
v 0.351562 0.515625 0.617188
v -0.351562 0.515625 0.617188
v -0.294953 0.363987 0.804906
v -0.432483 0.337392 0.795450
v 0.546875 0.437500 0.578125
v -0.546875 0.437500 0.578125
v 0.633637 0.242150 0.566680
v -0.633637 0.242150 0.566680
v 0.466863 0.195096 0.766162
v 0.432483 0.337392 0.795450
v -0.466863 0.195096 0.766162
v 0.000000 -0.187500 0.796875
v 0.000000 0.898438 -0.546875
v 0.108643 0.491041 -0.869539
v 0.000000 -0.382812 -0.351562
v -0.220840 -0.184282 0.531800
v 0.220840 -0.184282 0.531800
v -0.360071 -0.927514 0.572301
v 0.360071 -0.927514 0.572301
v 0.577659 -0.086733 0.540999
v -0.577659 -0.086733 0.540999
v 0.834783 0.423254 0.589328
v -0.834783 0.423254 0.589328
v 0.251790 0.769013 0.746862
v -0.251790 0.769013 0.746862
v 0.000000 0.417278 0.744515
v -0.195227 0.301883 0.758798
v 0.551920 -0.004564 0.630239
v -0.299899 0.484315 0.747732
v 0.299899 0.484315 0.747732
v -0.065732 -0.763472 0.733715
v -0.052440 -0.906879 0.690146
v 0.000000 -0.195312 0.750000
v 0.000000 -0.140625 0.742188
v 0.094814 -0.120196 0.795684
v -0.551920 -0.004564 0.630239
v -0.729015 0.388944 0.678526
v 0.729015 0.388944 0.678526
v -0.252177 0.653553 0.851777
v 0.252177 0.653553 0.851777
v -0.000000 0.329070 0.830150
v -0.094814 -0.120196 0.795684
v 0.138502 -0.240536 0.734220
v -0.000000 0.064815 0.732573
v -0.230334 0.129458 0.757979
v -0.124825 -0.227263 0.812515
v 0.104201 -0.225123 0.822212
v -0.006478 -0.337020 0.757628
v -0.141610 -0.239658 0.729354
v 0.091366 -0.836566 0.713698
v -0.095819 -0.795847 0.642325
v 0.077467 -0.822830 0.635409
v 0.195227 0.301883 0.758798
v -0.285071 0.399468 0.776472
v -0.412083 0.390727 0.751666
v -0.549752 0.301214 0.675759
v -0.542530 0.213160 0.681297
v -0.460036 0.118220 0.705621
v -0.373759 0.086983 0.729413
v 0.285071 0.399468 0.776472
v 0.230334 0.129458 0.757979
v 0.373759 0.086983 0.729413
v 0.460036 0.118220 0.705621
v 0.542530 0.213160 0.681297
v 0.549752 0.301214 0.675759
v 0.412083 0.390727 0.751666
v -0.000000 0.420633 0.637038
v -0.260583 0.709342 0.607090
v 0.260583 0.709342 0.607090
v -0.464098 0.520895 0.481215
v -0.704473 0.404566 0.307972
v -0.783688 0.113242 0.416992
v 0.783688 0.113242 0.416992
v 0.000000 0.898438 0.289062
v 0.000000 0.984375 -0.078125
v 0.000000 -0.078116 -0.777908
v 0.000000 -0.487724 0.299484
v 0.853821 0.342353 -0.186063
v -0.460938 0.437500 -0.703125
v -0.659901 -0.119392 -0.121426
v 0.659901 -0.119392 -0.121426
v -0.742935 -0.096205 -0.329129
v -0.325956 -0.909612 0.408270
v -0.247368 -0.507892 0.386600
v 0.040558 -0.796824 0.350120
v 0.247368 -0.507892 0.386600
v 0.325865 -0.936373 0.411746
v -0.196827 -0.399766 0.275526
v 0.196827 -0.399766 0.275526
v 0.380830 -0.247215 -0.201982
v 0.416138 -0.056313 -0.564653
v -0.416138 -0.056313 -0.564653
v 0.453125 0.867188 -0.382812
v -0.453125 0.867188 -0.382812
v -0.468039 0.900587 0.151110
v 0.468039 0.900587 0.151110
v 0.464098 0.520895 0.481215
v 0.704473 0.404566 0.307972
v -0.778416 0.571313 0.104450
v 0.778416 0.571313 0.104450
v 0.781262 0.611360 -0.336432
v -0.781262 0.611360 -0.336432
v -0.822768 0.331336 -0.409608
v -0.853821 0.342353 -0.186063
v -0.380830 -0.247215 -0.201982
v -0.812789 -0.105257 -0.123260
v -1.044079 -0.075476 -0.314684
v -1.317000 0.071596 -0.487159
v -1.362991 0.312056 -0.443765
v -1.209045 0.489463 -0.397220
v -0.938002 0.419518 -0.243040
v 1.209045 0.489463 -0.397220
v 1.233696 0.245938 -0.434685
v 1.044079 -0.075476 -0.314684
v 0.812789 -0.105257 -0.123260
v 0.938002 0.419518 -0.243040
v 0.856900 0.001803 -0.300854
v -1.147273 0.048080 -0.441156
v -1.233696 0.245938 -0.434685
v -1.154985 0.352190 -0.458766
v -0.972876 0.294463 -0.348509
v 0.790561 0.101955 -0.306724
v 0.711848 -0.001168 -0.175937
v -0.711848 -0.001168 -0.175937
v 0.972876 0.294463 -0.348509
v -0.790561 0.101955 -0.306724
v 1.154985 0.352190 -0.458766
v 1.147273 0.048080 -0.441156
v -0.856900 0.001803 -0.300854
v -1.226293 0.483535 -0.548223
v 1.226293 0.483535 -0.548223
v 1.362991 0.312056 -0.443765
v 1.317000 0.071596 -0.487159
v 1.039062 -0.085938 -0.492188
v -1.039062 -0.085938 -0.492188
v 0.742935 -0.096205 -0.329129
v 0.822768 0.331336 -0.409608
vn 0.7703 -0.2576 0.5833
vn -0.7703 -0.2576 0.5833
vn 0.5024 -0.5324 0.6812
vn -0.5024 -0.5324 0.6812
vn -0.2136 -0.7730 0.5974
vn 0.2136 -0.7730 0.5974
vn -0.6653 -0.3569 0.6557
vn -0.5927 0.1795 0.7852
vn 0.5927 0.1795 0.7852
vn 0.6245 0.3291 0.7083
vn 0.2247 0.7900 0.5704
vn 0.1870 0.7358 0.6508
vn -0.4027 0.7322 0.5493
vn 0.7742 0.3116 0.5510
vn -0.7603 0.0504 0.6476
vn 0.2994 -0.1224 0.9462
vn -0.2994 -0.1224 0.9462
vn 0.1028 -0.0442 0.9937
vn -0.1028 -0.0442 0.9937
vn 0.0683 -0.0017 0.9977
vn -0.0683 -0.0017 0.9977
vn 0.3530 -0.8565 0.3766
vn -0.3530 -0.8565 0.3766
vn 0.7205 -0.4239 0.5489
vn -0.6654 -0.3784 0.6435
vn 0.4775 0.4655 0.7452
vn -0.5405 0.5668 0.6218
vn -0.6864 0.4878 0.5393
vn 0.6917 0.5030 0.5182
vn 0.3245 -0.1293 0.9370
vn -0.4243 -0.3844 0.8199
vn 0.1024 -0.2397 0.9654
vn -0.0225 -0.5190 0.8545
vn 0.9205 -0.0511 0.3874
vn -0.0565 -0.1466 0.9876
vn -0.1477 -0.8447 0.5144
vn 0.1477 -0.8447 0.5144
vn -0.1722 0.2378 0.9559
vn 0.1722 0.2378 0.9559
vn -0.1025 -0.0256 0.9944
vn 0.1025 -0.0256 0.9944
vn 0.1842 -0.6295 0.7549
vn 0.4471 -0.0661 0.8921
vn -0.4548 -0.0585 0.8887
vn -0.9460 0.2884 0.1479
vn -1.0000 -0.0000 -0.0000
vn 0.4688 0.6706 0.5748
vn -0.6001 -0.7646 0.2351
vn -0.4976 0.0405 0.8665
vn 0.4976 0.0405 0.8665
vn 0.1023 0.4269 0.8985
vn -0.4290 -0.8996 -0.0817
vn -0.1287 -0.9207 0.3685
vn 0.4658 -0.1829 0.8658
vn -0.4658 -0.1829 0.8658
vn -0.6177 0.7503 0.2355
vn 0.2026 0.2822 0.9377
vn -0.2026 0.2822 0.9377
vn -0.5349 0.3534 0.7675
vn 0.5349 0.3534 0.7675
vn -0.7411 0.6711 0.0209
vn 0.7411 0.6711 0.0209
vn -0.5409 0.7853 -0.3012
vn 0.3509 0.8076 -0.4739
vn -0.3043 0.9307 -0.2028
vn 0.9018 0.0868 -0.4234
vn -0.2034 -0.6537 -0.7289
vn -0.3332 0.0143 -0.9428
vn -0.0401 -0.9924 -0.1166
vn 0.9630 0.1638 -0.2142
vn -0.9669 0.1794 -0.1815
vn 0.9501 0.1892 -0.2481
vn -0.9501 0.1892 -0.2481
vn -0.1981 -0.6558 -0.7285
vn 0.3224 -0.7701 -0.5504
vn -0.4400 -0.8116 -0.3844
vn 0.3887 -0.9096 -0.1466
vn -0.3887 -0.9096 -0.1466
vn 0.9191 -0.3919 -0.0420
vn -0.9191 -0.3919 -0.0420
vn -0.4495 -0.2788 -0.8487
vn 0.0626 0.9718 0.2274
vn 0.1320 0.9750 -0.1788
vn -0.1320 0.9750 -0.1788
vn -0.2816 0.5485 -0.7873
vn 0.5632 0.2861 -0.7752
vn -0.6530 0.2806 -0.7035
vn 0.7308 0.6794 0.0664
vn -0.7308 0.6794 0.0664
vn 0.6117 0.4884 0.6224
vn -0.6117 0.4884 0.6224
vn 0.1427 0.5827 0.8001
vn -0.2146 0.6395 0.7382
vn -0.3534 0.2248 -0.9080
vn -0.9126 0.3356 0.2336
vn 0.9532 -0.0615 0.2959
vn -0.9532 -0.0615 0.2959
vn 0.9605 0.2766 0.0313
vn -0.9605 0.2766 0.0313
vn 0.9727 0.1818 -0.1441
vn 0.3193 -0.8944 0.3130
vn -0.3193 -0.8944 0.3130
vn 0.6565 -0.7543 0.0120
vn -0.6565 -0.7543 0.0120
vn -0.5453 -0.2523 -0.7994
vn 0.5016 -0.1885 -0.8443
vn 0.4017 -0.9139 0.0586
vn -0.2100 -0.8734 -0.4393
vn -0.1389 -0.1368 0.9808
vn 0.1734 -0.2069 0.9629
vn -0.2782 -0.1525 0.9483
vn 0.1079 0.6657 0.7384
vn 0.3539 0.7595 0.5458
vn -0.3539 0.7595 0.5458
vn -0.5028 -0.1809 0.8452
vn 0.5259 -0.4579 0.7168
vn -0.5578 -0.5124 0.6530
vn -0.0288 0.4290 0.9029
vn 0.4508 0.7106 0.5403
vn -0.4508 0.7106 0.5403
vn 0.6384 -0.4728 0.6073
vn -0.8966 -0.3631 0.2533
vn 0.7154 -0.3230 0.6196
vn -0.0972 0.1223 0.9877
vn 0.2838 -0.1549 0.9463
vn 0.3545 0.4486 0.8204
vn -0.3545 0.4486 0.8204
vn 0.0658 -0.9962 0.0569
vn -0.0658 -0.9962 0.0569
vn 0.7618 0.6449 0.0617
vn -0.2865 0.9555 -0.0702
vn 0.4038 0.8940 -0.1939
vn -0.3301 0.0157 -0.9438
vn 0.4790 -0.0752 -0.8746
vn 0.0897 -0.1267 -0.9879
vn -0.0897 -0.1267 -0.9879
vn 0.6240 0.0216 -0.7811
vn -0.6240 0.0216 -0.7811
vn 0.6547 0.7540 0.0538
vn 0.0909 -0.9931 -0.0745
vn -0.0909 -0.9931 -0.0745
vn 0.3424 -0.7322 0.5887
vn -0.3424 -0.7322 0.5887
vn -0.3367 -0.6331 0.6970
vn 0.3367 -0.6331 0.6970
vn 0.6653 -0.3569 0.6557
vn -0.6245 0.3291 0.7083
vn -0.2247 0.7900 0.5704
vn 0.4027 0.7322 0.5493
vn -0.1870 0.7358 0.6508
vn -0.7742 0.3116 0.5510
vn 0.7603 0.0504 0.6476
vn 0.8901 0.1893 0.4147
vn -0.8918 0.1895 0.4108
vn 0.1732 -0.6991 0.6937
vn -0.1732 -0.6991 0.6937
vn 0.7229 -0.3918 0.5692
vn -0.7229 -0.3918 0.5692
vn 0.6654 -0.3784 0.6435
vn -0.7205 -0.4239 0.5489
vn 0.5405 0.5668 0.6218
vn -0.4775 0.4655 0.7452
vn -0.6917 0.5030 0.5182
vn 0.6864 0.4878 0.5393
vn 0.4243 -0.3844 0.8199
vn -0.3245 -0.1293 0.9370
vn 0.0225 -0.5190 0.8545
vn -0.1024 -0.2397 0.9654
vn 0.0565 -0.1466 0.9876
vn -0.9205 -0.0511 0.3874
vn 0.3509 -0.0493 0.9351
vn -0.3509 -0.0493 0.9351
vn 0.2826 -0.3323 0.8999
vn -0.2826 -0.3323 0.8999
vn -0.3232 -0.3024 0.8967
vn -0.2212 -0.0239 0.9749
vn 0.1908 -0.0488 0.9804
vn 0.0945 -0.0688 0.9931
vn 0.9282 0.1671 0.3325
vn -0.4688 0.6706 0.5748
vn 0.5576 -0.7531 0.3493
vn -0.1509 0.2296 0.9615
vn 0.3730 0.5117 -0.7740
vn -0.0433 0.1670 0.9850
vn -0.0328 -0.4751 0.8793
vn 0.9068 0.1233 0.4031
vn -0.9065 0.1326 0.4007
vn -0.4577 0.8584 0.2319
vn 0.9086 0.1962 -0.3686
vn 0.3496 -0.2861 0.8921
vn -0.3496 -0.2861 0.8921
vn 0.6177 0.7503 0.2355
vn -0.7779 0.5588 -0.2875
vn 0.7779 0.5588 -0.2875
vn 0.5409 0.7853 -0.3012
vn 0.3043 0.9307 -0.2028
vn -0.3509 0.8076 -0.4739
vn -0.9018 0.0868 -0.4234
vn 0.2034 -0.6537 -0.7289
vn 0.3220 -0.1118 -0.9401
vn -0.1019 -0.1738 -0.9795
vn -0.0126 -0.4255 -0.9049
vn -0.0322 -0.9976 0.0619
vn 0.0173 -0.9916 0.1285
vn 0.2015 -0.0206 -0.9793
vn 0.9646 0.1697 -0.2020
vn -0.9646 0.1697 -0.2020
vn 0.1981 -0.6558 -0.7285
vn 0.4400 -0.8116 -0.3844
vn -0.3224 -0.7701 -0.5504
vn 0.3818 -0.9129 -0.1445
vn -0.3818 -0.9129 -0.1445
vn 0.4537 -0.2254 -0.8622
vn -0.2701 -0.1026 -0.9574
vn -0.0626 0.9718 0.2274
vn 0.2075 0.9760 -0.0668
vn -0.2075 0.9760 -0.0668
vn 0.3002 0.6401 -0.7072
vn -0.3140 0.5711 -0.7585
vn 0.4853 0.4914 -0.7232
vn -0.5042 0.5220 -0.6880
vn 0.6193 0.7823 -0.0662
vn -0.6193 0.7823 -0.0662
vn 0.6530 0.4931 0.5749
vn -0.6530 0.4931 0.5749
vn 0.2146 0.6395 0.7382
vn -0.1427 0.5827 0.8001
vn 0.3534 0.2248 -0.9080
vn 0.9126 0.3356 0.2336
vn -0.9727 0.1818 -0.1441
vn 0.4769 -0.6942 0.5391
vn -0.4769 -0.6942 0.5391
vn 0.5453 -0.2523 -0.7994
vn -0.5573 -0.2707 -0.7849
vn 0.2100 -0.8734 -0.4393
vn -0.4017 -0.9139 0.0586
vn 0.1389 -0.1368 0.9808
vn 0.2782 -0.1525 0.9483
vn -0.1734 -0.2069 0.9629
vn -0.1079 0.6657 0.7384
vn 0.2876 0.5572 0.7790
vn -0.2876 0.5572 0.7790
vn 0.5028 -0.1809 0.8452
vn 0.5578 -0.5124 0.6530
vn -0.5259 -0.4579 0.7168
vn 0.0288 0.4290 0.9029
vn 0.9233 -0.3799 0.0559
vn -0.9233 -0.3799 0.0559
vn 0.5848 0.4278 0.6892
vn -0.5848 0.4278 0.6892
vn 0.8966 -0.3631 0.2533
vn -0.6384 -0.4728 0.6073
vn -0.7154 -0.3230 0.6196
vn 0.0972 0.1223 0.9877
vn 0.4384 -0.0275 0.8983
vn -0.4384 -0.0275 0.8983
vn -0.2838 -0.1549 0.9463
vn 0.0718 -0.9951 -0.0681
vn -0.0718 -0.9951 -0.0681
vn 0.4922 -0.8697 0.0373
vn -0.4922 -0.8697 0.0373
vn -0.7618 0.6449 0.0617
vn 0.2865 0.9555 -0.0702
vn -0.4038 0.8940 -0.1939
vn -0.4790 -0.0752 -0.8746
vn 0.3301 0.0157 -0.9438
vn -0.6547 0.7540 0.0538
vt 0.852992 0.521418
vt 0.847425 0.888890
vt 0.798481 0.569535
vt 0.795104 0.838402
vt 0.852521 0.805538
vt 0.854382 0.604916
vt 0.860093 0.630727
vt 0.859372 0.780005
vt 0.791018 0.645443
vt 0.791018 0.762238
vt 0.844776 0.707334
vt 0.842287 0.702679
vt 0.896968 0.634616
vt 0.918898 0.699697
vt 0.921180 0.713713
vt 0.968392 0.645333
vt 0.968213 0.770220
vt 0.896383 0.777757
vt 0.901228 0.805429
vt 0.968392 0.573812
vt 0.965038 0.841671
vt 0.920247 0.524364
vt 0.914745 0.888933
vt 0.879995 0.591261
vt 0.903037 0.607186
vt 0.877502 0.820316
vt 0.519132 0.185382
vt 0.999856 0.254640
vt 0.000144 0.259113
vt 0.011829 0.155367
vt 0.975285 0.171209
vt 0.805584 0.010786
vt 0.232648 0.003484
vt 0.425409 0.160506
vt 0.612025 0.160013
vt 0.486910 0.062083
vt 0.550967 0.062144
vt 0.667062 0.222716
vt 0.369749 0.224966
vt 0.706062 0.312803
vt 0.332088 0.319626
vt 0.619321 0.396230
vt 0.424532 0.400637
vt 0.523345 0.386654
vt 0.461909 0.312087
vt 0.646919 0.246497
vt 0.431951 0.345723
vt 0.609647 0.342374
vt 0.512433 0.085525
vt 0.513357 0.067295
vt 0.517577 0.190607
vt 0.519841 0.200843
vt 0.538541 0.192222
vt 0.390884 0.249210
vt 0.354639 0.321116
vt 0.684315 0.315249
vt 0.433429 0.380311
vt 0.609625 0.376566
vt 0.524791 0.348198
vt 0.499630 0.192282
vt 0.546898 0.163917
vt 0.519818 0.253993
vt 0.457742 0.272889
vt 0.502860 0.175862
vt 0.532469 0.176423
vt 0.517851 0.152645
vt 0.487813 0.166499
vt 0.527111 0.075709
vt 0.513981 0.077704
vt 0.522587 0.076959
vt 0.578880 0.310210
vt 0.439056 0.331043
vt 0.413572 0.324302
vt 0.389093 0.303207
vt 0.391701 0.287421
vt 0.408859 0.269906
vt 0.426260 0.263633
vt 0.602097 0.328149
vt 0.581843 0.271377
vt 0.612634 0.261502
vt 0.629861 0.267210
vt 0.647152 0.283844
vt 0.650194 0.299150
vt 0.626930 0.320635
vt 0.521283 0.433791
vt 0.828277 0.453929
vt 0.215527 0.477945
vt 0.416115 0.430558
vt 0.279228 0.458056
vt 0.763108 0.431383
vt 0.629069 0.425393
vt 0.350292 0.396229
vt 0.250412 0.388650
vt 0.262025 0.315934
vt 0.316954 0.260471
vt 0.718433 0.255948
vt 0.911671 0.402429
vt 0.106400 0.432652
vt 0.962901 0.344752
vt 0.043968 0.367038
vt 0.918961 0.058338
vt 0.110477 0.041181
vt 0.646555 0.021152
vt 0.391712 0.020395
vt 0.390727 0.842483
vt 0.823433 0.215892
vt 0.107928 0.179083
vt 0.369913 0.610196
vt 0.252217 0.161470
vt 0.391039 0.611891
vt 0.779315 0.162321
vt 0.196622 0.155241
vt 0.274087 0.608281
vt 0.479795 0.053295
vt 0.425532 0.076707
vt 0.470636 0.000144
vt 0.570152 0.009165
vt 0.612098 0.076998
vt 0.557287 0.053026
vt 0.380225 0.082348
vt 0.656999 0.083030
vt 0.780967 0.105926
vt 0.857082 0.118753
vt 0.173591 0.111895
vt 0.915360 0.259804
vt 0.098965 0.266968
vt 0.149702 0.344631
vt 0.872094 0.327733
vt 0.692106 0.388274
vt 0.785243 0.369869
vt 0.771517 0.305840
vt 0.209152 0.287410
vt 0.818812 0.278316
vt 0.861062 0.236078
vt 0.160829 0.240518
vt 0.174724 0.195301
vt 0.114925 0.578320
vt 0.051216 0.522659
vt 0.204174 0.219066
vt 0.364923 0.841617
vt 0.252960 0.102815
vt 0.322798 0.668797
vt 0.254013 0.699262
vt 0.183672 0.725349
vt 0.137366 0.774518
vt 0.161836 0.865884
vt 0.049526 0.748824
vt 0.298963 0.885811
vt 0.028330 0.592599
vt 0.707492 0.759884
vt 0.592008 0.872159
vt 0.569431 0.788756
vt 0.504912 0.703617
vt 0.437023 0.671493
vt 0.455128 0.888187
vt 0.742590 0.602243
vt 0.834578 0.206879
vt 0.444091 0.727422
vt 0.226441 0.744152
vt 0.186938 0.782731
vt 0.206246 0.814974
vt 0.277953 0.818264
vt 0.425893 0.752045
vt 0.797515 0.179589
vt 0.391705 0.693446
vt 0.231852 0.178215
vt 0.367734 0.691872
vt 0.477856 0.821579
vt 0.331961 0.749836
vt 0.549299 0.820288
vt 0.531194 0.749179
vt 0.314328 0.724667
vt 0.095882 0.726043
vt 0.662072 0.735096
vt 0.618977 0.782060
vt 0.574420 0.731649
vt 0.543385 0.683538
vt 0.216123 0.678120
vt 0.837382 0.156361
vt 0.487205 0.611647
vt 0.649822 0.581235
vt 0.838848 0.201675
s 0
f 24/24/1 1/1/1 22/22/1
f 2/2/2 26/26/2 23/23/2
f 24/24/3 6/6/3 1/1/3
f 5/5/4 26/26/4 2/2/4
f 6/6/5 9/9/5 3/3/5
f 10/10/6 5/5/6 4/4/6
f 12/12/7 9/9/7 7/7/7
f 7/7/8 13/13/8 12/12/8
f 18/18/9 8/8/9 11/11/9
f 18/18/10 11/11/10 15/15/10
f 18/18/11 15/15/11 17/17/11
f 25/25/12 16/16/12 13/13/12
f 19/19/13 17/17/13 21/21/13
f 22/22/14 20/20/14 25/25/14
f 26/26/15 19/19/15 23/23/15
f 6/6/16 24/24/16 25/25/16
f 19/19/17 26/26/17 5/5/17
f 25/25/18 7/7/18 6/6/18
f 5/5/19 8/8/19 19/19/19
f 25/25/20 13/13/20 7/7/20
f 8/8/21 18/18/21 19/19/21
f 32/35/22 43/46/22 50/53/22
f 51/54/23 31/34/23 57/60/23
f 37/40/24 43/46/24 88/96/24
f 38/41/25 51/54/25 52/55/25
f 39/42/26 53/56/26 37/40/26
f 40/43/27 52/55/27 54/57/27
f 41/44/28 55/58/28 39/42/28
f 41/44/29 54/57/29 56/59/29
f 45/48/30 56/59/30 68/71/30
f 44/47/31 56/59/31 54/57/31
f 53/56/32 45/48/32 80/83/32
f 52/55/33 44/47/33 54/57/33
f 43/46/34 80/83/34 79/82/34
f 51/54/35 71/74/35 52/55/35
f 76/79/36 43/46/36 77/80/36
f 51/54/37 60/63/37 74/77/37
f 76/79/38 59/62/38 50/53/38
f 59/62/39 60/63/39 57/60/39
f 68/71/40 59/62/40 76/79/40
f 59/62/41 42/45/41 60/63/41
f 65/68/42 47/50/42 34/37/42
f 58/61/43 65/68/43 34/37/43
f 46/49/44 64/67/44 33/36/44
f 57/60/45 64/67/45 61/64/45
f 27/27/46 49/52/46 48/51/46
f 27/27/47 49/52/47 57/60/47
f 64/67/48 63/66/48 61/64/48
f 49/52/49 50/53/49 59/62/49
f 57/60/50 49/52/50 59/62/50
f 47/50/51 67/70/51 66/69/51
f 46/49/52 67/70/52 65/68/52
f 46/49/53 66/69/53 67/70/53
f 43/46/54 79/82/54 78/81/54
f 72/75/55 51/54/55 73/76/55
f 44/47/56 71/74/56 70/73/56
f 45/48/57 75/78/57 81/84/57
f 69/72/58 44/47/58 70/73/58
f 45/48/59 68/71/59 75/78/59
f 42/45/60 44/47/60 69/72/60
f 41/44/61 84/91/61 82/85/61
f 83/88/62 41/44/62 82/85/62
f 40/43/63 83/88/63 85/92/63
f 37/40/64 112/129/64 39/42/64
f 38/41/65 85/92/65 86/94/65
f 88/96/66 113/131/66 37/40/66
f 92/104/67 99/115/67 103/120/67
f 92/104/68 98/114/68 99/115/68
f 102/119/69 33/36/69 98/114/69
f 34/37/70 102/119/70 101/118/70
f 98/114/71 33/36/71 99/115/71
f 32/35/72 101/118/72 104/121/72
f 99/115/73 31/34/73 103/120/73
f 31/34/74 36/39/74 87/95/74
f 106/123/75 30/32/75 91/101/75
f 107/124/76 30/33/76 120/141/76
f 30/32/77 104/121/77 92/103/77
f 103/120/78 30/33/78 92/104/78
f 88/96/79 96/111/79 93/106/79
f 95/109/80 87/95/80 119/139/80
f 94/107/81 91/102/81 107/124/81
f 111/128/82 90/99/82 89/97/82
f 90/99/83 108/125/83 28/28/83
f 109/126/84 90/100/84 28/29/84
f 94/107/85 28/29/85 29/30/85
f 29/31/86 116/134/86 152/182/86
f 117/135/87 94/107/87 118/136/87
f 111/128/88 115/133/88 116/134/88
f 114/132/89 110/127/89 117/135/89
f 111/128/90 113/131/90 115/133/90
f 86/94/91 110/127/91 114/132/91
f 112/130/92 89/97/92 82/86/92
f 85/93/93 89/98/93 110/127/93
f 84/90/94 112/130/94 82/86/94
f 87/95/95 86/94/95 119/139/95
f 93/106/96 115/133/96 113/131/96
f 114/132/97 119/139/97 86/94/97
f 93/106/98 116/134/98 115/133/98
f 117/135/99 119/139/99 114/132/99
f 116/134/100 93/106/100 152/182/100
f 88/96/101 105/122/101 96/111/101
f 120/141/102 87/95/102 95/109/102
f 88/96/103 104/121/103 105/122/103
f 103/120/104 87/95/104 120/141/104
f 97/112/105 118/136/105 107/124/105
f 152/182/106 106/123/106 29/31/106
f 105/122/107 151/179/107 96/111/107
f 120/141/108 97/112/108 107/124/108
f 125/146/109 124/145/109 134/160/109
f 128/152/110 148/176/110 147/175/110
f 134/160/111 123/144/111 133/159/111
f 143/171/112 129/153/112 148/176/112
f 129/153/113 132/158/113 130/154/113
f 144/172/114 122/143/114 121/142/114
f 142/170/115 128/152/115 127/151/115
f 140/168/116 127/151/116 131/155/116
f 136/162/117 125/146/117 135/161/117
f 130/154/118 138/165/118 96/110/118
f 130/154/119 132/158/119 138/165/119
f 144/172/120 121/142/120 139/167/120
f 93/105/121 137/163/121 140/168/121
f 119/140/122 141/169/122 139/167/122
f 93/105/123 140/168/123 131/155/123
f 141/169/124 136/162/124 144/172/124
f 140/168/125 143/171/125 128/152/125
f 142/170/126 140/168/126 128/152/126
f 136/162/127 135/161/127 134/160/127
f 129/153/128 151/180/128 149/177/128
f 97/113/129 122/143/129 150/178/129
f 147/175/130 146/174/130 127/150/130
f 127/150/131 146/174/131 131/156/131
f 126/149/132 118/137/132 145/173/132
f 149/177/133 152/181/133 146/174/133
f 150/178/134 118/137/134 97/113/134
f 146/174/135 148/176/135 149/177/135
f 123/144/136 145/173/136 150/178/136
f 146/174/137 147/175/137 148/176/137
f 123/144/138 124/145/138 145/173/138
f 119/138/139 118/137/139 126/149/139
f 96/110/140 151/180/140 130/154/140
f 97/113/141 95/108/141 121/142/141
f 1/1/142 6/6/142 3/3/142
f 4/4/143 5/5/143 2/2/143
f 6/6/144 7/7/144 9/9/144
f 10/10/145 8/8/145 5/5/145
f 11/11/146 8/8/146 10/10/146
f 13/13/147 14/14/147 12/12/147
f 13/13/148 16/16/148 14/14/148
f 25/25/149 20/20/149 16/16/149
f 19/19/150 18/18/150 17/17/150
f 23/23/151 19/19/151 21/21/151
f 24/24/152 22/22/152 25/25/152
f 32/35/153 58/61/153 34/37/153
f 33/36/154 64/67/154 31/34/154
f 32/35/155 35/38/155 43/46/155
f 51/54/156 36/39/156 31/34/156
f 35/38/157 88/96/157 43/46/157
f 51/54/158 87/95/158 36/39/158
f 37/40/159 53/56/159 43/46/159
f 38/41/160 87/95/160 51/54/160
f 39/42/161 55/58/161 53/56/161
f 40/43/162 38/41/162 52/55/162
f 41/44/163 56/59/163 55/58/163
f 41/44/164 40/43/164 54/57/164
f 45/48/165 55/58/165 56/59/165
f 44/47/166 42/45/166 56/59/166
f 53/56/167 55/58/167 45/48/167
f 52/55/168 71/74/168 44/47/168
f 43/46/169 53/56/169 80/83/169
f 51/54/170 72/75/170 71/74/170
f 76/79/171 50/53/171 43/46/171
f 51/54/172 57/60/172 60/63/172
f 68/71/173 56/59/173 59/62/173
f 59/62/174 56/59/174 42/45/174
f 47/50/175 46/49/175 33/36/175
f 46/49/176 63/66/176 64/67/176
f 58/61/177 63/66/177 65/68/177
f 63/66/178 46/49/178 65/68/178
f 50/53/179 62/65/179 58/61/179
f 27/27/180 50/53/180 49/52/180
f 58/61/181 62/65/181 63/66/181
f 27/27/182 62/65/182 50/53/182
f 57/60/183 62/65/183 27/27/183
f 61/64/184 62/65/184 57/60/184
f 61/64/185 63/66/185 62/65/185
f 32/35/186 50/53/186 58/61/186
f 64/67/187 57/60/187 31/34/187
f 47/50/188 65/68/188 67/70/188
f 66/69/189 46/49/189 47/50/189
f 77/80/190 43/46/190 78/81/190
f 73/76/191 51/54/191 74/77/191
f 45/48/192 81/84/192 80/83/192
f 41/44/193 39/42/193 84/91/193
f 83/88/194 40/43/194 41/44/194
f 39/42/195 112/129/195 84/91/195
f 37/40/196 113/131/196 112/129/196
f 38/41/197 40/43/197 85/92/197
f 87/95/198 38/41/198 86/94/198
f 92/103/199 104/121/199 101/118/199
f 92/103/200 101/118/200 100/117/200
f 92/104/201 100/116/201 98/114/201
f 100/116/202 102/119/202 98/114/202
f 34/37/203 47/50/203 102/119/203
f 102/119/204 47/50/204 33/36/204
f 102/119/205 100/117/205 101/118/205
f 32/35/206 34/37/206 101/118/206
f 99/115/207 33/36/207 31/34/207
f 32/35/208 88/96/208 35/38/208
f 106/123/209 105/122/209 30/32/209
f 107/124/210 91/102/210 30/33/210
f 30/32/211 105/122/211 104/121/211
f 103/120/212 120/141/212 30/33/212
f 29/31/213 106/123/213 91/101/213
f 94/107/214 29/30/214 91/102/214
f 110/127/215 89/98/215 90/100/215
f 90/99/216 111/128/216 108/125/216
f 109/126/217 110/127/217 90/100/217
f 28/28/218 108/125/218 29/31/218
f 94/107/219 109/126/219 28/29/219
f 29/31/220 108/125/220 116/134/220
f 117/135/221 109/126/221 94/107/221
f 108/125/222 111/128/222 116/134/222
f 117/135/223 110/127/223 109/126/223
f 111/128/224 112/130/224 113/131/224
f 86/94/225 85/93/225 110/127/225
f 112/130/226 111/128/226 89/97/226
f 85/93/227 82/87/227 89/98/227
f 83/89/228 82/87/228 85/93/228
f 88/96/229 93/106/229 113/131/229
f 117/135/230 118/136/230 119/139/230
f 88/96/231 32/35/231 104/121/231
f 103/120/232 31/34/232 87/95/232
f 151/179/233 106/123/233 152/182/233
f 118/136/234 94/107/234 107/124/234
f 105/122/235 106/123/235 151/179/235
f 120/141/236 95/109/236 97/112/236
f 127/151/237 128/152/237 147/175/237
f 128/152/238 143/171/238 148/176/238
f 134/160/239 124/145/239 123/144/239
f 133/159/240 123/144/240 122/143/240
f 129/153/241 143/171/241 132/158/241
f 144/172/242 133/159/242 122/143/242
f 135/161/243 125/146/243 134/160/243
f 140/168/244 142/170/244 127/151/244
f 136/162/245 126/148/245 125/146/245
f 121/142/246 95/108/246 139/167/246
f 93/106/247 96/111/247 138/164/247
f 139/166/248 95/109/248 119/139/248
f 137/163/249 138/165/249 132/158/249
f 144/172/250 139/167/250 141/169/250
f 93/105/251 138/165/251 137/163/251
f 119/140/252 136/162/252 141/169/252
f 119/140/253 126/148/253 136/162/253
f 137/163/254 132/158/254 140/168/254
f 143/171/255 140/168/255 132/158/255
f 144/172/256 136/162/256 133/159/256
f 136/162/257 134/160/257 133/159/257
f 129/153/258 130/154/258 151/180/258
f 97/113/259 121/142/259 122/143/259
f 148/176/260 129/153/260 149/177/260
f 150/178/261 122/143/261 123/144/261
f 124/145/262 125/147/262 145/173/262
f 125/147/263 126/149/263 145/173/263
f 131/156/264 146/174/264 152/181/264
f 149/177/265 151/180/265 152/181/265
f 150/178/266 145/173/266 118/137/266
f 93/106/267 131/157/267 152/182/267
