# Blender 3.4.1
# www.blender.org
o Plane
v -1.000000 0.000000 1.000000
v 1.000000 0.000000 1.000000
v -1.000000 0.000000 -1.000000
v 1.000000 0.000000 -1.000000
v -0.389500 0.000000 0.409105
v -0.399423 0.000000 0.399423
v -0.379343 0.000000 0.418540
v -0.368957 0.000000 0.427724
v -0.358349 0.000000 0.436650
v -0.336492 0.000000 0.453707
v -0.347525 0.000000 0.445312
v -0.325256 0.000000 0.461828
v -0.313824 0.000000 0.469671
v -0.290401 0.000000 0.484504
v -0.302204 0.000000 0.477232
v -0.266277 0.000000 0.498170
v -0.241513 0.000000 0.510635
v -0.253971 0.000000 0.504555
v -0.278423 0.000000 0.491485
v -0.228908 0.000000 0.516409
v -0.216166 0.000000 0.521871
v -0.190299 0.000000 0.531849
v -0.203294 0.000000 0.527019
v -0.163973 0.000000 0.540546
v -0.137252 0.000000 0.547940
v -0.150658 0.000000 0.544407
v -0.177189 0.000000 0.536359
v -0.110200 0.000000 0.554015
v -0.082883 0.000000 0.558755
v -0.096571 0.000000 0.556553
v -0.055367 0.000000 0.562149
v -0.013863 0.000000 0.564699
v -0.027717 0.000000 0.564189
v -0.041554 0.000000 0.563338
v -0.069146 0.000000 0.560621
v -0.123763 0.000000 0.551144
v 0.013863 0.000000 0.564699
v 0.041554 0.000000 0.563338
v 0.027717 0.000000 0.564189
v 0.069146 0.000000 0.560621
v 0.096571 0.000000 0.556553
v 0.082883 0.000000 0.558755
v 0.055367 0.000000 0.562149
v 0.123763 0.000000 0.551144
v 0.150658 0.000000 0.544407
v 0.137252 0.000000 0.547940
v 0.177189 0.000000 0.536359
v 0.203294 0.000000 0.527019
v 0.190299 0.000000 0.531849
v 0.163973 0.000000 0.540546
v 0.110200 0.000000 0.554015
v 0.228908 0.000000 0.516409
v 0.253971 0.000000 0.504555
v 0.241513 0.000000 0.510635
v 0.278423 0.000000 0.491485
v 0.302204 0.000000 0.477232
v 0.290401 0.000000 0.484504
v 0.266277 0.000000 0.498170
v 0.325256 0.000000 0.461828
v 0.347525 0.000000 0.445312
v 0.336492 0.000000 0.453707
v 0.368957 0.000000 0.427724
v 0.389500 0.000000 0.409105
v 0.379343 0.000000 0.418540
v 0.358349 0.000000 0.436650
v 0.313824 0.000000 0.469671
v 0.216166 0.000000 0.521871
v 0.000000 0.000000 0.564869
v 0.409105 0.000000 0.389500
v 0.409105 0.000000 -0.389500
v 0.427724 0.000000 0.368957
v 0.427724 0.000000 -0.368957
v 0.418540 0.000000 0.379343
v 0.418540 0.000000 -0.379343
v 0.445312 0.000000 0.347525
v 0.445312 0.000000 -0.347525
v 0.461828 0.000000 0.325256
v 0.461828 0.000000 -0.325256
v 0.453707 0.000000 0.336492
v 0.453707 0.000000 -0.336492
v 0.436650 0.000000 0.358349
v 0.436650 0.000000 -0.358349
v 0.477232 0.000000 0.302204
v 0.477232 0.000000 -0.302204
v 0.491485 0.000000 0.278423
v 0.491485 0.000000 -0.278423
v 0.484504 0.000000 0.290401
v 0.484504 0.000000 -0.290401
v 0.504555 0.000000 0.253971
v 0.504555 0.000000 -0.253971
v 0.516409 0.000000 0.228908
v 0.516409 0.000000 -0.228908
v 0.510635 0.000000 0.241513
v 0.510635 0.000000 -0.241513
v 0.498170 0.000000 0.266277
v 0.498170 0.000000 -0.266277
v 0.469671 0.000000 0.313824
v 0.469671 0.000000 -0.313824
v 0.527019 0.000000 0.203294
v 0.527019 0.000000 -0.203294
v 0.536359 0.000000 0.177189
v 0.536359 0.000000 -0.177189
v 0.531849 0.000000 0.190299
v 0.531849 0.000000 -0.190299
v 0.544407 0.000000 0.150658
v 0.544407 0.000000 -0.150658
v 0.551144 0.000000 0.123763
v 0.551144 0.000000 -0.123763
v 0.547940 0.000000 0.137252
v 0.547940 0.000000 -0.137252
v 0.540546 0.000000 0.163973
v 0.540546 0.000000 -0.163973
v 0.556553 0.000000 0.096571
v 0.556553 0.000000 -0.096571
v 0.560621 0.000000 0.069146
v 0.560621 0.000000 -0.069146
v 0.558755 0.000000 0.082883
v 0.558755 0.000000 -0.082883
v 0.563338 0.000000 0.041554
v 0.563338 0.000000 -0.041554
v 0.564869 0.000000 0.000000
v 0.564699 0.000000 0.013863
v 0.564699 0.000000 -0.013863
v 0.564189 0.000000 0.027717
v 0.564189 0.000000 -0.027717
v 0.562149 0.000000 0.055367
v 0.562149 0.000000 -0.055367
v 0.554015 0.000000 0.110200
v 0.554015 0.000000 -0.110200
v 0.521871 0.000000 0.216166
v 0.521871 0.000000 -0.216166
v 0.399423 0.000000 -0.399423
v 0.399423 0.000000 0.399423
v -0.564869 0.000000 0.000000
v -0.564699 0.000000 0.013863
v -0.564699 0.000000 -0.013863
v -0.563338 0.000000 0.041554
v -0.564189 0.000000 -0.027717
v -0.564189 0.000000 0.027717
v -0.563338 0.000000 -0.041554
v -0.560621 0.000000 0.069146
v -0.562149 0.000000 -0.055367
v -0.556553 0.000000 0.096571
v -0.558755 0.000000 -0.082883
v -0.558755 0.000000 0.082883
v -0.560621 0.000000 -0.069146
v -0.562149 0.000000 0.055367
v -0.556553 0.000000 -0.096571
v -0.551144 0.000000 0.123763
v -0.554015 0.000000 -0.110200
v -0.544407 0.000000 0.150658
v -0.547940 0.000000 -0.137252
v -0.547940 0.000000 0.137252
v -0.551144 0.000000 -0.123763
v -0.536359 0.000000 0.177189
v -0.540546 0.000000 -0.163973
v -0.527019 0.000000 -0.203294
v -0.527019 0.000000 0.203294
v -0.531849 0.000000 -0.190299
v -0.531849 0.000000 0.190299
v -0.536359 0.000000 -0.177189
v -0.540546 0.000000 0.163973
v -0.544407 0.000000 -0.150658
v -0.554015 0.000000 0.110200
v -0.516409 0.000000 0.228908
v -0.516409 0.000000 -0.228908
v -0.504555 0.000000 0.253971
v -0.504555 0.000000 -0.253971
v -0.510635 0.000000 0.241513
v -0.510635 0.000000 -0.241513
v -0.491485 0.000000 0.278423
v -0.491485 0.000000 -0.278423
v -0.477232 0.000000 0.302204
v -0.477232 0.000000 -0.302204
v -0.484504 0.000000 0.290401
v -0.484504 0.000000 -0.290401
v -0.498170 0.000000 0.266277
v -0.498170 0.000000 -0.266277
v -0.461828 0.000000 0.325256
v -0.461828 0.000000 -0.325256
v -0.445312 0.000000 0.347525
v -0.445312 0.000000 -0.347525
v -0.453707 0.000000 0.336492
v -0.453707 0.000000 -0.336492
v -0.427724 0.000000 0.368957
v -0.427724 0.000000 -0.368957
v -0.409105 0.000000 0.389500
v -0.409105 0.000000 -0.389500
v -0.418540 0.000000 0.379343
v -0.418540 0.000000 -0.379343
v -0.436650 0.000000 0.358349
v -0.436650 0.000000 -0.358349
v -0.469671 0.000000 0.313824
v -0.469671 0.000000 -0.313824
v -0.521871 0.000000 0.216166
v -0.521871 0.000000 -0.216166
v -0.389500 0.000000 -0.409105
v -0.368957 0.000000 -0.427724
v -0.379343 0.000000 -0.418540
v -0.347525 0.000000 -0.445312
v -0.325256 0.000000 -0.461828
v -0.336492 0.000000 -0.453707
v -0.358349 0.000000 -0.436650
v -0.302204 0.000000 -0.477232
v -0.278423 0.000000 -0.491485
v -0.290401 0.000000 -0.484504
v -0.253971 0.000000 -0.504555
v -0.228908 0.000000 -0.516409
v -0.241513 0.000000 -0.510635
v -0.266277 0.000000 -0.498170
v -0.313824 0.000000 -0.469671
v -0.203294 0.000000 -0.527019
v -0.177189 0.000000 -0.536359
v -0.190299 0.000000 -0.531849
v -0.150658 0.000000 -0.544407
v -0.123763 0.000000 -0.551144
v -0.137252 0.000000 -0.547940
v -0.163973 0.000000 -0.540546
v -0.096571 0.000000 -0.556553
v -0.069146 0.000000 -0.560621
v -0.082883 0.000000 -0.558755
v -0.041554 0.000000 -0.563338
v -0.013863 0.000000 -0.564699
v -0.027717 0.000000 -0.564189
v -0.055367 0.000000 -0.562149
v -0.110200 0.000000 -0.554015
v -0.216166 0.000000 -0.521871
v 0.013863 0.000000 -0.564699
v 0.041554 0.000000 -0.563338
v 0.027717 0.000000 -0.564189
v 0.069146 0.000000 -0.560621
v 0.096571 0.000000 -0.556553
v 0.082883 0.000000 -0.558755
v 0.055367 0.000000 -0.562149
v 0.123763 0.000000 -0.551144
v 0.150658 0.000000 -0.544407
v 0.137252 0.000000 -0.547940
v 0.177189 0.000000 -0.536359
v 0.203294 0.000000 -0.527019
v 0.190299 0.000000 -0.531849
v 0.163973 0.000000 -0.540546
v 0.110200 0.000000 -0.554015
v 0.228908 0.000000 -0.516409
v 0.253971 0.000000 -0.504555
v 0.241513 0.000000 -0.510635
v 0.278423 0.000000 -0.491485
v 0.302204 0.000000 -0.477232
v 0.290401 0.000000 -0.484504
v 0.266277 0.000000 -0.498170
v 0.325256 0.000000 -0.461828
v 0.347525 0.000000 -0.445312
v 0.336492 0.000000 -0.453707
v 0.368957 0.000000 -0.427724
v 0.389500 0.000000 -0.409105
v 0.379343 0.000000 -0.418540
v 0.358349 0.000000 -0.436650
v 0.313824 0.000000 -0.469671
v 0.216166 0.000000 -0.521871
v 0.000000 0.000000 -0.564869
v -0.399423 0.000000 -0.399423
vn -0.0000 1.0000 -0.0000
vt 0.000000 0.000000
vt 1.000000 0.000000
vt 0.000000 1.000000
vt 1.000000 1.000000
vt 0.305250 0.295448
vt 0.300289 0.300289
vt 0.310329 0.290730
vt 0.315521 0.286138
vt 0.320825 0.281675
vt 0.331754 0.273147
vt 0.326237 0.277344
vt 0.337372 0.269086
vt 0.343088 0.265164
vt 0.354800 0.257748
vt 0.348898 0.261384
vt 0.366861 0.250915
vt 0.379244 0.244682
vt 0.373014 0.247723
vt 0.360789 0.254257
vt 0.385546 0.241796
vt 0.391917 0.239065
vt 0.404851 0.234076
vt 0.398353 0.236491
vt 0.418014 0.229727
vt 0.431374 0.226030
vt 0.424671 0.227796
vt 0.411405 0.231821
vt 0.444900 0.222992
vt 0.458558 0.220622
vt 0.451714 0.221724
vt 0.472317 0.218926
vt 0.493069 0.217651
vt 0.486142 0.217906
vt 0.479223 0.218331
vt 0.465427 0.219690
vt 0.438118 0.224428
vt 0.506931 0.217651
vt 0.520777 0.218331
vt 0.513858 0.217906
vt 0.534573 0.219690
vt 0.548286 0.221724
vt 0.541442 0.220622
vt 0.527683 0.218926
vt 0.561882 0.224428
vt 0.575329 0.227796
vt 0.568626 0.226030
vt 0.588595 0.231821
vt 0.601647 0.236491
vt 0.595149 0.234076
vt 0.581986 0.229727
vt 0.555100 0.222992
vt 0.614454 0.241796
vt 0.626986 0.247723
vt 0.620756 0.244682
vt 0.639211 0.254257
vt 0.651102 0.261384
vt 0.645200 0.257748
vt 0.633139 0.250915
vt 0.662628 0.269086
vt 0.673763 0.277344
vt 0.668246 0.273147
vt 0.684479 0.286138
vt 0.694750 0.295448
vt 0.689671 0.290730
vt 0.679175 0.281675
vt 0.656912 0.265164
vt 0.608083 0.239065
vt 0.500000 0.217566
vt 0.704552 0.305250
vt 0.704552 0.694750
vt 0.713862 0.315521
vt 0.713862 0.684479
vt 0.709270 0.310329
vt 0.709270 0.689671
vt 0.722656 0.326237
vt 0.722656 0.673763
vt 0.730914 0.337372
vt 0.730914 0.662628
vt 0.726853 0.331754
vt 0.726853 0.668246
vt 0.718325 0.320825
vt 0.718325 0.679175
vt 0.738616 0.348898
vt 0.738616 0.651102
vt 0.745743 0.360789
vt 0.745743 0.639211
vt 0.742252 0.354800
vt 0.742252 0.645200
vt 0.752277 0.373014
vt 0.752277 0.626986
vt 0.758204 0.385546
vt 0.758204 0.614454
vt 0.755318 0.379244
vt 0.755318 0.620756
vt 0.749085 0.366861
vt 0.749085 0.633139
vt 0.734836 0.343088
vt 0.734836 0.656912
vt 0.763509 0.398353
vt 0.763509 0.601647
vt 0.768179 0.411405
vt 0.768179 0.588595
vt 0.765925 0.404851
vt 0.765925 0.595149
vt 0.772204 0.424671
vt 0.772204 0.575329
vt 0.775572 0.438118
vt 0.775572 0.561882
vt 0.773970 0.431374
vt 0.773970 0.568626
vt 0.770273 0.418014
vt 0.770273 0.581986
vt 0.778276 0.451714
vt 0.778276 0.548286
vt 0.780310 0.465427
vt 0.780310 0.534573
vt 0.779378 0.458558
vt 0.779378 0.541442
vt 0.781669 0.479223
vt 0.781669 0.520777
vt 0.782435 0.500000
vt 0.782349 0.493069
vt 0.782349 0.506931
vt 0.782094 0.486142
vt 0.782094 0.513858
vt 0.781074 0.472317
vt 0.781075 0.527683
vt 0.777008 0.444900
vt 0.777008 0.555100
vt 0.760935 0.391917
vt 0.760935 0.608083
vt 0.699711 0.699711
vt 0.699711 0.300289
vt 0.217566 0.500000
vt 0.217651 0.493069
vt 0.217651 0.506931
vt 0.218331 0.479223
vt 0.217906 0.513858
vt 0.217906 0.486142
vt 0.218331 0.520777
vt 0.219690 0.465427
vt 0.218926 0.527683
vt 0.221724 0.451714
vt 0.220622 0.541442
vt 0.220622 0.458558
vt 0.219690 0.534573
vt 0.218926 0.472317
vt 0.221724 0.548286
vt 0.224428 0.438118
vt 0.222992 0.555100
vt 0.227796 0.424671
vt 0.226030 0.568626
vt 0.226030 0.431374
vt 0.224428 0.561882
vt 0.231821 0.411406
vt 0.229727 0.581986
vt 0.236491 0.601647
vt 0.236491 0.398353
vt 0.234076 0.595149
vt 0.234076 0.404851
vt 0.231821 0.588595
vt 0.229727 0.418014
vt 0.227796 0.575329
vt 0.222992 0.444900
vt 0.241796 0.385546
vt 0.241796 0.614454
vt 0.247723 0.373014
vt 0.247723 0.626986
vt 0.244682 0.379244
vt 0.244682 0.620756
vt 0.254257 0.360789
vt 0.254257 0.639211
vt 0.261384 0.348898
vt 0.261384 0.651102
vt 0.257748 0.354800
vt 0.257748 0.645200
vt 0.250915 0.366861
vt 0.250915 0.633139
vt 0.269086 0.337372
vt 0.269086 0.662628
vt 0.277344 0.326237
vt 0.277344 0.673763
vt 0.273147 0.331754
vt 0.273147 0.668246
vt 0.286138 0.315521
vt 0.286138 0.684479
vt 0.295448 0.305250
vt 0.295448 0.694750
vt 0.290730 0.310329
vt 0.290730 0.689671
vt 0.281675 0.320825
vt 0.281675 0.679175
vt 0.265164 0.343088
vt 0.265164 0.656912
vt 0.239065 0.391917
vt 0.239065 0.608083
vt 0.305250 0.704552
vt 0.315521 0.713862
vt 0.310329 0.709270
vt 0.326237 0.722656
vt 0.337372 0.730914
vt 0.331754 0.726853
vt 0.320825 0.718325
vt 0.348898 0.738616
vt 0.360789 0.745743
vt 0.354800 0.742252
vt 0.373014 0.752277
vt 0.385546 0.758204
vt 0.379244 0.755318
vt 0.366861 0.749085
vt 0.343088 0.734836
vt 0.398353 0.763509
vt 0.411405 0.768179
vt 0.404851 0.765925
vt 0.424671 0.772204
vt 0.438118 0.775572
vt 0.431374 0.773970
vt 0.418014 0.770273
vt 0.451714 0.778276
vt 0.465427 0.780310
vt 0.458558 0.779378
vt 0.479223 0.781669
vt 0.493069 0.782349
vt 0.486142 0.782094
vt 0.472317 0.781074
vt 0.444900 0.777008
vt 0.391917 0.760935
vt 0.506931 0.782349
vt 0.520777 0.781669
vt 0.513858 0.782094
vt 0.534573 0.780310
vt 0.548286 0.778276
vt 0.541442 0.779378
vt 0.527683 0.781075
vt 0.561882 0.775572
vt 0.575329 0.772204
vt 0.568626 0.773970
vt 0.588595 0.768179
vt 0.601647 0.763509
vt 0.595149 0.765925
vt 0.581986 0.770273
vt 0.555100 0.777008
vt 0.614454 0.758204
vt 0.626986 0.752277
vt 0.620756 0.755318
vt 0.639211 0.745742
vt 0.651102 0.738616
vt 0.645200 0.742252
vt 0.633139 0.749085
vt 0.662628 0.730914
vt 0.673763 0.722656
vt 0.668246 0.726853
vt 0.684479 0.713862
vt 0.694750 0.704552
vt 0.689671 0.709270
vt 0.679175 0.718325
vt 0.656912 0.734836
vt 0.608083 0.760935
vt 0.500000 0.782435
vt 0.300289 0.699711
s 0
f 3/3/1 260/260/1 197/197/1
f 2/2/1 133/133/1 63/63/1
f 254/254/1 132/132/1 4/4/1
f 1/1/1 6/6/1 187/187/1
f 1/1/1 187/187/1 189/189/1
f 255/255/1 254/254/1 4/4/1
f 253/253/1 255/255/1 4/4/1
f 1/1/1 189/189/1 185/185/1
f 1/1/1 185/185/1 191/191/1
f 256/256/1 253/253/1 4/4/1
f 251/251/1 256/256/1 4/4/1
f 1/1/1 191/191/1 181/181/1
f 1/1/1 181/181/1 183/183/1
f 252/252/1 251/251/1 4/4/1
f 250/250/1 252/252/1 4/4/1
f 1/1/1 183/183/1 179/179/1
f 1/1/1 179/179/1 193/193/1
f 257/257/1 250/250/1 4/4/1
f 247/247/1 257/257/1 4/4/1
f 1/1/1 193/193/1 173/173/1
f 1/1/1 173/173/1 175/175/1
f 248/248/1 247/247/1 4/4/1
f 246/246/1 248/248/1 4/4/1
f 1/1/1 175/175/1 171/171/1
f 1/1/1 171/171/1 177/177/1
f 249/249/1 246/246/1 4/4/1
f 244/244/1 249/249/1 4/4/1
f 1/1/1 177/177/1 167/167/1
f 1/1/1 167/167/1 169/169/1
f 245/245/1 244/244/1 4/4/1
f 243/243/1 245/245/1 4/4/1
f 1/1/1 169/169/1 165/165/1
f 1/1/1 165/165/1 195/195/1
f 258/258/1 243/243/1 4/4/1
f 239/239/1 258/258/1 4/4/1
f 1/1/1 195/195/1 158/158/1
f 1/1/1 158/158/1 160/160/1
f 239/239/1 4/4/1 3/3/1
f 240/240/1 239/239/1 3/3/1
f 3/3/1 1/1/1 160/160/1
f 3/3/1 160/160/1 155/155/1
f 238/238/1 240/240/1 3/3/1
f 241/241/1 238/238/1 3/3/1
f 3/3/1 155/155/1 162/162/1
f 3/3/1 162/162/1 151/151/1
f 236/236/1 241/241/1 3/3/1
f 237/237/1 236/236/1 3/3/1
f 3/3/1 151/151/1 153/153/1
f 3/3/1 153/153/1 149/149/1
f 235/235/1 237/237/1 3/3/1
f 242/242/1 235/235/1 3/3/1
f 3/3/1 149/149/1 164/164/1
f 3/3/1 164/164/1 143/143/1
f 232/232/1 242/242/1 3/3/1
f 233/233/1 232/232/1 3/3/1
f 3/3/1 143/143/1 145/145/1
f 3/3/1 145/145/1 141/141/1
f 231/231/1 233/233/1 3/3/1
f 234/234/1 231/231/1 3/3/1
f 3/3/1 141/141/1 147/147/1
f 3/3/1 147/147/1 137/137/1
f 229/229/1 234/234/1 3/3/1
f 230/230/1 229/229/1 3/3/1
f 3/3/1 137/137/1 139/139/1
f 3/3/1 139/139/1 135/135/1
f 228/228/1 230/230/1 3/3/1
f 259/259/1 228/228/1 3/3/1
f 3/3/1 135/135/1 134/134/1
f 3/3/1 134/134/1 136/136/1
f 223/223/1 259/259/1 3/3/1
f 224/224/1 223/223/1 3/3/1
f 3/3/1 136/136/1 138/138/1
f 3/3/1 138/138/1 140/140/1
f 222/222/1 224/224/1 3/3/1
f 225/225/1 222/222/1 3/3/1
f 3/3/1 140/140/1 142/142/1
f 3/3/1 142/142/1 146/146/1
f 220/220/1 225/225/1 3/3/1
f 221/221/1 220/220/1 3/3/1
f 3/3/1 146/146/1 144/144/1
f 3/3/1 144/144/1 148/148/1
f 219/219/1 221/221/1 3/3/1
f 226/226/1 219/219/1 3/3/1
f 3/3/1 148/148/1 150/150/1
f 3/3/1 150/150/1 154/154/1
f 216/216/1 226/226/1 3/3/1
f 217/217/1 216/216/1 3/3/1
f 3/3/1 154/154/1 152/152/1
f 3/3/1 152/152/1 163/163/1
f 215/215/1 217/217/1 3/3/1
f 218/218/1 215/215/1 3/3/1
f 3/3/1 163/163/1 156/156/1
f 3/3/1 156/156/1 161/161/1
f 213/213/1 218/218/1 3/3/1
f 214/214/1 213/213/1 3/3/1
f 3/3/1 161/161/1 159/159/1
f 3/3/1 159/159/1 157/157/1
f 212/212/1 214/214/1 3/3/1
f 227/227/1 212/212/1 3/3/1
f 3/3/1 157/157/1 196/196/1
f 3/3/1 196/196/1 166/166/1
f 208/208/1 227/227/1 3/3/1
f 209/209/1 208/208/1 3/3/1
f 3/3/1 166/166/1 170/170/1
f 3/3/1 170/170/1 168/168/1
f 207/207/1 209/209/1 3/3/1
f 210/210/1 207/207/1 3/3/1
f 3/3/1 168/168/1 178/178/1
f 3/3/1 178/178/1 172/172/1
f 205/205/1 210/210/1 3/3/1
f 206/206/1 205/205/1 3/3/1
f 3/3/1 172/172/1 176/176/1
f 3/3/1 176/176/1 174/174/1
f 204/204/1 206/206/1 3/3/1
f 211/211/1 204/204/1 3/3/1
f 3/3/1 174/174/1 194/194/1
f 3/3/1 194/194/1 180/180/1
f 201/201/1 211/211/1 3/3/1
f 202/202/1 201/201/1 3/3/1
f 3/3/1 180/180/1 184/184/1
f 3/3/1 184/184/1 182/182/1
f 200/200/1 202/202/1 3/3/1
f 203/203/1 200/200/1 3/3/1
f 3/3/1 182/182/1 192/192/1
f 3/3/1 192/192/1 186/186/1
f 198/198/1 203/203/1 3/3/1
f 199/199/1 198/198/1 3/3/1
f 3/3/1 186/186/1 190/190/1
f 3/3/1 190/190/1 188/188/1
f 197/197/1 199/199/1 3/3/1
f 3/3/1 188/188/1 260/260/1
f 5/5/1 6/6/1 1/1/1
f 4/4/1 132/132/1 70/70/1
f 4/4/1 70/70/1 74/74/1
f 7/7/1 5/5/1 1/1/1
f 8/8/1 7/7/1 1/1/1
f 4/4/1 74/74/1 72/72/1
f 4/4/1 72/72/1 82/82/1
f 9/9/1 8/8/1 1/1/1
f 11/11/1 9/9/1 1/1/1
f 4/4/1 82/82/1 76/76/1
f 4/4/1 76/76/1 80/80/1
f 10/10/1 11/11/1 1/1/1
f 12/12/1 10/10/1 1/1/1
f 4/4/1 80/80/1 78/78/1
f 4/4/1 78/78/1 98/98/1
f 13/13/1 12/12/1 1/1/1
f 15/15/1 13/13/1 1/1/1
f 4/4/1 98/98/1 84/84/1
f 4/4/1 84/84/1 88/88/1
f 14/14/1 15/15/1 1/1/1
f 19/19/1 14/14/1 1/1/1
f 4/4/1 88/88/1 86/86/1
f 4/4/1 86/86/1 96/96/1
f 16/16/1 19/19/1 1/1/1
f 18/18/1 16/16/1 1/1/1
f 4/4/1 96/96/1 90/90/1
f 4/4/1 90/90/1 94/94/1
f 17/17/1 18/18/1 1/1/1
f 20/20/1 17/17/1 1/1/1
f 4/4/1 94/94/1 92/92/1
f 4/4/1 92/92/1 131/131/1
f 21/21/1 20/20/1 1/1/1
f 23/23/1 21/21/1 1/1/1
f 4/4/1 131/131/1 100/100/1
f 4/4/1 100/100/1 104/104/1
f 23/23/1 1/1/1 2/2/1
f 22/22/1 23/23/1 2/2/1
f 2/2/1 4/4/1 104/104/1
f 2/2/1 104/104/1 102/102/1
f 27/27/1 22/22/1 2/2/1
f 24/24/1 27/27/1 2/2/1
f 2/2/1 102/102/1 112/112/1
f 2/2/1 112/112/1 106/106/1
f 26/26/1 24/24/1 2/2/1
f 25/25/1 26/26/1 2/2/1
f 2/2/1 106/106/1 110/110/1
f 2/2/1 110/110/1 108/108/1
f 36/36/1 25/25/1 2/2/1
f 28/28/1 36/36/1 2/2/1
f 2/2/1 108/108/1 129/129/1
f 2/2/1 129/129/1 114/114/1
f 30/30/1 28/28/1 2/2/1
f 29/29/1 30/30/1 2/2/1
f 2/2/1 114/114/1 118/118/1
f 2/2/1 118/118/1 116/116/1
f 35/35/1 29/29/1 2/2/1
f 31/31/1 35/35/1 2/2/1
f 2/2/1 116/116/1 127/127/1
f 2/2/1 127/127/1 120/120/1
f 34/34/1 31/31/1 2/2/1
f 33/33/1 34/34/1 2/2/1
f 2/2/1 120/120/1 125/125/1
f 2/2/1 125/125/1 123/123/1
f 32/32/1 33/33/1 2/2/1
f 68/68/1 32/32/1 2/2/1
f 2/2/1 123/123/1 121/121/1
f 2/2/1 121/121/1 122/122/1
f 37/37/1 68/68/1 2/2/1
f 39/39/1 37/37/1 2/2/1
f 2/2/1 122/122/1 124/124/1
f 2/2/1 124/124/1 119/119/1
f 38/38/1 39/39/1 2/2/1
f 43/43/1 38/38/1 2/2/1
f 2/2/1 119/119/1 126/126/1
f 2/2/1 126/126/1 115/115/1
f 40/40/1 43/43/1 2/2/1
f 42/42/1 40/40/1 2/2/1
f 2/2/1 115/115/1 117/117/1
f 2/2/1 117/117/1 113/113/1
f 41/41/1 42/42/1 2/2/1
f 51/51/1 41/41/1 2/2/1
f 2/2/1 113/113/1 128/128/1
f 2/2/1 128/128/1 107/107/1
f 44/44/1 51/51/1 2/2/1
f 46/46/1 44/44/1 2/2/1
f 2/2/1 107/107/1 109/109/1
f 2/2/1 109/109/1 105/105/1
f 45/45/1 46/46/1 2/2/1
f 50/50/1 45/45/1 2/2/1
f 2/2/1 105/105/1 111/111/1
f 2/2/1 111/111/1 101/101/1
f 47/47/1 50/50/1 2/2/1
f 49/49/1 47/47/1 2/2/1
f 2/2/1 101/101/1 103/103/1
f 2/2/1 103/103/1 99/99/1
f 48/48/1 49/49/1 2/2/1
f 67/67/1 48/48/1 2/2/1
f 2/2/1 99/99/1 130/130/1
f 2/2/1 130/130/1 91/91/1
f 52/52/1 67/67/1 2/2/1
f 54/54/1 52/52/1 2/2/1
f 2/2/1 91/91/1 93/93/1
f 2/2/1 93/93/1 89/89/1
f 53/53/1 54/54/1 2/2/1
f 58/58/1 53/53/1 2/2/1
f 2/2/1 89/89/1 95/95/1
f 2/2/1 95/95/1 85/85/1
f 55/55/1 58/58/1 2/2/1
f 57/57/1 55/55/1 2/2/1
f 2/2/1 85/85/1 87/87/1
f 2/2/1 87/87/1 83/83/1
f 56/56/1 57/57/1 2/2/1
f 66/66/1 56/56/1 2/2/1
f 2/2/1 83/83/1 97/97/1
f 2/2/1 97/97/1 77/77/1
f 59/59/1 66/66/1 2/2/1
f 61/61/1 59/59/1 2/2/1
f 2/2/1 77/77/1 79/79/1
f 2/2/1 79/79/1 75/75/1
f 60/60/1 61/61/1 2/2/1
f 65/65/1 60/60/1 2/2/1
f 2/2/1 75/75/1 81/81/1
f 2/2/1 81/81/1 71/71/1
f 62/62/1 65/65/1 2/2/1
f 64/64/1 62/62/1 2/2/1
f 2/2/1 71/71/1 73/73/1
f 2/2/1 73/73/1 69/69/1
f 63/63/1 64/64/1 2/2/1
f 2/2/1 69/69/1 133/133/1
